<svg width="303" height="46" viewBox="0 0 303 46" fill="none" xmlns="http://www.w3.org/2000/svg">
<path d="M22.9997 0C35.7026 0 45.9997 10.2971 45.9997 23V39.1C45.9997 40.93 45.2728 42.685 43.9788 43.979C42.6848 45.273 40.9297 46 39.0997 46H24.1497V35.9099C24.1497 33.6076 24.29 31.2225 25.4975 29.2629C26.362 27.8586 27.5185 26.6566 28.8884 25.7385C30.2583 24.8204 31.8096 24.2077 33.4371 23.9419L33.8776 23.8706C34.0592 23.8085 34.2168 23.6912 34.3284 23.5351C34.44 23.379 34.5 23.1919 34.5 23C34.5 22.8081 34.44 22.621 34.3284 22.4649C34.2168 22.3088 34.0592 22.1915 33.8776 22.1294L33.4371 22.0581C31.0591 21.6697 28.8632 20.5441 27.1594 18.8403C25.4556 17.1365 24.3301 14.9406 23.9416 12.5626L23.8703 12.1222C23.8082 11.9406 23.6909 11.7829 23.5348 11.6713C23.3787 11.5597 23.1916 11.4997 22.9997 11.4997C22.8078 11.4997 22.6208 11.5597 22.4647 11.6713C22.3086 11.7829 22.1913 11.9406 22.1292 12.1222L22.0579 12.5626C21.7922 14.1902 21.1795 15.7415 20.2614 17.1114C19.3433 18.4814 18.1412 19.6378 16.7368 20.5022C14.7772 21.7097 12.3921 21.85 10.0898 21.85H0.0273438C0.628794 9.68185 10.6832 0 22.9997 0Z" fill="#5F6FFF"/>
<path d="M0 24.15H10.0901C12.3924 24.15 14.7775 24.2903 16.7371 25.4978C18.2689 26.4417 19.5583 27.7311 20.5022 29.2629C21.7097 31.2225 21.85 33.6076 21.85 35.9099V46H6.9C5.07001 46 3.31496 45.273 2.02096 43.979C0.726962 42.685 0 40.93 0 39.1L0 24.15ZM46 2.3C46 2.91 45.7577 3.49501 45.3263 3.92635C44.895 4.35768 44.31 4.6 43.7 4.6C43.09 4.6 42.505 4.35768 42.0737 3.92635C41.6423 3.49501 41.4 2.91 41.4 2.3C41.4 1.69 41.6423 1.10499 42.0737 0.673654C42.505 0.242321 43.09 0 43.7 0C44.31 0 44.895 0.242321 45.3263 0.673654C45.7577 1.10499 46 1.69 46 2.3Z" fill="#5F6FFF"/>
<path d="M59.448 37V13.098H62.712L72.402 28.602H70.532L80.188 13.098H83.452V37H78.862V21.02L79.746 21.292L73.014 32.104H69.886L63.154 21.292L64.072 21.02V37H59.448ZM95.7127 37.34C93.9901 37.34 92.4601 36.9773 91.1227 36.252C89.7854 35.504 88.7201 34.484 87.9267 33.192C87.1561 31.9 86.7707 30.4267 86.7707 28.772C86.7707 27.14 87.1447 25.6893 87.8927 24.42C88.6634 23.128 89.7061 22.108 91.0207 21.36C92.3354 20.5893 93.7974 20.204 95.4067 20.204C96.9934 20.204 98.3874 20.5667 99.5887 21.292C100.813 21.9947 101.765 22.9693 102.445 24.216C103.147 25.44 103.499 26.834 103.499 28.398C103.499 28.6927 103.476 28.9987 103.431 29.316C103.408 29.6107 103.351 29.9507 103.261 30.336L89.4567 30.37V27.038L101.187 27.004L99.3847 28.398C99.3394 27.4233 99.1581 26.6073 98.8407 25.95C98.5461 25.2927 98.1041 24.794 97.5147 24.454C96.9481 24.0913 96.2454 23.91 95.4067 23.91C94.5227 23.91 93.7521 24.114 93.0947 24.522C92.4374 24.9073 91.9274 25.4627 91.5647 26.188C91.2247 26.8907 91.0547 27.7293 91.0547 28.704C91.0547 29.7013 91.2361 30.574 91.5987 31.322C91.9841 32.0473 92.5281 32.614 93.2307 33.022C93.9334 33.4073 94.7494 33.6 95.6787 33.6C96.5174 33.6 97.2767 33.464 97.9567 33.192C98.6367 32.8973 99.2261 32.4667 99.7247 31.9L102.343 34.518C101.549 35.4473 100.575 36.15 99.4187 36.626C98.2854 37.102 97.0501 37.34 95.7127 37.34ZM113.189 37.34C111.671 37.34 110.311 36.966 109.109 36.218C107.908 35.47 106.956 34.45 106.253 33.158C105.573 31.866 105.233 30.4153 105.233 28.806C105.233 27.174 105.573 25.712 106.253 24.42C106.956 23.128 107.897 22.108 109.075 21.36C110.277 20.612 111.648 20.238 113.189 20.238C114.368 20.238 115.422 20.476 116.351 20.952C117.303 21.428 118.063 22.0967 118.629 22.958C119.219 23.7967 119.536 24.7487 119.581 25.814V31.662C119.536 32.7273 119.23 33.6907 118.663 34.552C118.097 35.4133 117.337 36.0933 116.385 36.592C115.433 37.0907 114.368 37.34 113.189 37.34ZM113.937 33.226C114.776 33.226 115.501 33.0447 116.113 32.682C116.748 32.2967 117.235 31.7753 117.575 31.118C117.938 30.438 118.119 29.656 118.119 28.772C118.119 27.9107 117.938 27.1513 117.575 26.494C117.235 25.814 116.748 25.2927 116.113 24.93C115.501 24.5447 114.787 24.352 113.971 24.352C113.133 24.352 112.396 24.5447 111.761 24.93C111.149 25.3153 110.662 25.8367 110.299 26.494C109.959 27.1513 109.789 27.9107 109.789 28.772C109.789 29.656 109.959 30.438 110.299 31.118C110.662 31.7753 111.161 32.2967 111.795 32.682C112.43 33.0447 113.144 33.226 113.937 33.226ZM122.301 37H117.881V32.58L118.595 28.568L117.847 24.624V12.418H122.301V37ZM126.242 37V20.578H130.73V37H126.242ZM128.486 17.926C127.76 17.926 127.16 17.688 126.684 17.212C126.208 16.7133 125.97 16.1013 125.97 15.376C125.97 14.6733 126.208 14.0727 126.684 13.574C127.16 13.0753 127.76 12.826 128.486 12.826C129.234 12.826 129.834 13.0753 130.288 13.574C130.764 14.0727 131.002 14.6733 131.002 15.376C131.002 16.1013 130.764 16.7133 130.288 17.212C129.834 17.688 129.234 17.926 128.486 17.926ZM141.067 37V13.608H145.725V37H141.067ZM133.451 17.212V13.098H153.341V17.212H133.451ZM156.058 37V20.578H160.546V37H156.058ZM158.302 17.926C157.577 17.926 156.976 17.688 156.5 17.212C156.024 16.7133 155.786 16.1013 155.786 15.376C155.786 14.6733 156.024 14.0727 156.5 13.574C156.976 13.0753 157.577 12.826 158.302 12.826C159.05 12.826 159.651 13.0753 160.104 13.574C160.58 14.0727 160.818 14.6733 160.818 15.376C160.818 16.1013 160.58 16.7133 160.104 17.212C159.651 17.688 159.05 17.926 158.302 17.926ZM164.492 37V20.578H168.946V37H164.492ZM175.202 37V27.31C175.202 26.358 174.896 25.6213 174.284 25.1C173.694 24.556 172.958 24.284 172.074 24.284C171.484 24.284 170.952 24.4087 170.476 24.658C170 24.8847 169.626 25.2247 169.354 25.678C169.082 26.1313 168.946 26.6753 168.946 27.31L167.212 26.46C167.212 25.1907 167.484 24.0913 168.028 23.162C168.594 22.2327 169.354 21.5187 170.306 21.02C171.258 20.4987 172.334 20.238 173.536 20.238C174.669 20.238 175.7 20.4987 176.63 21.02C177.559 21.5187 178.296 22.2327 178.84 23.162C179.384 24.0687 179.656 25.168 179.656 26.46V37H175.202ZM185.912 37V27.31C185.912 26.358 185.606 25.6213 184.994 25.1C184.404 24.556 183.668 24.284 182.784 24.284C182.217 24.284 181.684 24.4087 181.186 24.658C180.71 24.8847 180.336 25.2247 180.064 25.678C179.792 26.1313 179.656 26.6753 179.656 27.31L177.106 26.698C177.196 25.3833 177.548 24.25 178.16 23.298C178.772 22.3233 179.576 21.5753 180.574 21.054C181.571 20.51 182.682 20.238 183.906 20.238C185.13 20.238 186.229 20.4987 187.204 21.02C188.178 21.5187 188.949 22.244 189.516 23.196C190.082 24.148 190.366 25.2813 190.366 26.596V37H185.912ZM201.83 37.34C200.107 37.34 198.577 36.9773 197.24 36.252C195.903 35.504 194.837 34.484 194.044 33.192C193.273 31.9 192.888 30.4267 192.888 28.772C192.888 27.14 193.262 25.6893 194.01 24.42C194.781 23.128 195.823 22.108 197.138 21.36C198.453 20.5893 199.915 20.204 201.524 20.204C203.111 20.204 204.505 20.5667 205.706 21.292C206.93 21.9947 207.882 22.9693 208.562 24.216C209.265 25.44 209.616 26.834 209.616 28.398C209.616 28.6927 209.593 28.9987 209.548 29.316C209.525 29.6107 209.469 29.9507 209.378 30.336L195.574 30.37V27.038L207.304 27.004L205.502 28.398C205.457 27.4233 205.275 26.6073 204.958 25.95C204.663 25.2927 204.221 24.794 203.632 24.454C203.065 24.0913 202.363 23.91 201.524 23.91C200.64 23.91 199.869 24.114 199.212 24.522C198.555 24.9073 198.045 25.4627 197.682 26.188C197.342 26.8907 197.172 27.7293 197.172 28.704C197.172 29.7013 197.353 30.574 197.716 31.322C198.101 32.0473 198.645 32.614 199.348 33.022C200.051 33.4073 200.867 33.6 201.796 33.6C202.635 33.6 203.394 33.464 204.074 33.192C204.754 32.8973 205.343 32.4667 205.842 31.9L208.46 34.518C207.667 35.4473 206.692 36.15 205.536 36.626C204.403 37.102 203.167 37.34 201.83 37.34Z" fill="#000B6D"/>
<path d="M244.809 33L248.785 23.284H249.737L253.699 33H252.271L249.009 24.782H249.499L246.209 33H244.809ZM246.699 30.802V29.654H251.809V30.802H246.699ZM257.437 33.14C256.821 33.14 256.271 32.9907 255.785 32.692C255.3 32.384 254.913 31.9687 254.623 31.446C254.343 30.9233 254.203 30.3353 254.203 29.682C254.203 29.0287 254.343 28.4407 254.623 27.918C254.913 27.3953 255.3 26.98 255.785 26.672C256.271 26.364 256.821 26.21 257.437 26.21C257.932 26.21 258.38 26.3173 258.781 26.532C259.183 26.7373 259.505 27.0267 259.747 27.4C259.999 27.764 260.139 28.1887 260.167 28.674V30.676C260.139 31.152 260.004 31.5767 259.761 31.95C259.519 32.3233 259.197 32.6173 258.795 32.832C258.394 33.0373 257.941 33.14 257.437 33.14ZM257.647 31.95C258.067 31.95 258.431 31.852 258.739 31.656C259.057 31.46 259.304 31.194 259.481 30.858C259.659 30.5127 259.747 30.1207 259.747 29.682C259.747 29.2247 259.654 28.828 259.467 28.492C259.29 28.156 259.043 27.89 258.725 27.694C258.417 27.498 258.053 27.4 257.633 27.4C257.213 27.4 256.845 27.498 256.527 27.694C256.21 27.89 255.958 28.1607 255.771 28.506C255.594 28.842 255.505 29.2293 255.505 29.668C255.505 30.116 255.594 30.5127 255.771 30.858C255.958 31.194 256.21 31.46 256.527 31.656C256.854 31.852 257.227 31.95 257.647 31.95ZM260.937 33H259.663V31.208L259.901 29.584L259.663 27.974V23.004H260.937V33ZM262.772 33V26.35H264.032V33H262.772ZM267.266 33V28.982C267.266 28.4873 267.112 28.1 266.804 27.82C266.505 27.5307 266.127 27.386 265.67 27.386C265.362 27.386 265.086 27.4513 264.844 27.582C264.601 27.7127 264.405 27.8947 264.256 28.128C264.106 28.3613 264.032 28.6413 264.032 28.968L263.514 28.716C263.514 28.212 263.621 27.7733 263.836 27.4C264.06 27.0267 264.363 26.7373 264.746 26.532C265.128 26.3173 265.558 26.21 266.034 26.21C266.5 26.21 266.92 26.3127 267.294 26.518C267.676 26.7233 267.975 27.0127 268.19 27.386C268.414 27.7593 268.526 28.2027 268.526 28.716V33H267.266ZM271.76 33V28.982C271.76 28.4873 271.606 28.1 271.298 27.82C270.999 27.5307 270.626 27.386 270.178 27.386C269.87 27.386 269.59 27.4513 269.338 27.582C269.095 27.7127 268.899 27.8947 268.75 28.128C268.6 28.3613 268.526 28.6413 268.526 28.968L267.812 28.716C267.84 28.2027 267.975 27.764 268.218 27.4C268.47 27.0267 268.792 26.7373 269.184 26.532C269.576 26.3173 270.005 26.21 270.472 26.21C270.957 26.21 271.391 26.3127 271.774 26.518C272.156 26.7233 272.46 27.0127 272.684 27.386C272.917 27.7593 273.034 28.2073 273.034 28.73V33H271.76ZM274.762 33V26.35H276.022V33H274.762ZM275.392 25.02C275.159 25.02 274.968 24.9453 274.818 24.796C274.669 24.6373 274.594 24.4413 274.594 24.208C274.594 23.984 274.669 23.7973 274.818 23.648C274.968 23.4893 275.159 23.41 275.392 23.41C275.626 23.41 275.817 23.4893 275.966 23.648C276.116 23.7973 276.19 23.984 276.19 24.208C276.19 24.4413 276.116 24.6373 275.966 24.796C275.817 24.9453 275.626 25.02 275.392 25.02ZM282.583 33V29.122C282.583 28.618 282.424 28.2027 282.107 27.876C281.79 27.5493 281.379 27.386 280.875 27.386C280.539 27.386 280.24 27.4607 279.979 27.61C279.718 27.7593 279.512 27.9647 279.363 28.226C279.214 28.4873 279.139 28.786 279.139 29.122L278.621 28.828C278.621 28.324 278.733 27.876 278.957 27.484C279.181 27.092 279.494 26.784 279.895 26.56C280.296 26.3267 280.749 26.21 281.253 26.21C281.757 26.21 282.2 26.336 282.583 26.588C282.975 26.84 283.283 27.1713 283.507 27.582C283.731 27.9833 283.843 28.4127 283.843 28.87V33H282.583ZM277.879 33V26.35H279.139V33H277.879Z" fill="#4B5563"/>
<rect x="225.5" y="15.5" width="77" height="25" rx="12.5" stroke="#4B5563"/>
</svg>
